<?xml version="1.0" encoding="utf-8"?>
<!-- Generator: Adobe Illustrator 19.1.0, SVG Export Plug-In . SVG Version: 6.00 Build 0)  -->
<svg version="1.1" baseProfile="tiny" id="Layer_1" xmlns="http://www.w3.org/2000/svg" xmlns:xlink="http://www.w3.org/1999/xlink"
	 x="0px" y="0px" viewBox="0 0 400 123.2" xml:space="preserve">
<g>
	<path fill="#29739D" d="M385.7,123.2H14.3C6.4,123.2,0,116.8,0,109V14.3C0,6.4,6.4,0,14.3,0h371.5c7.9,0,14.3,6.4,14.3,14.3V109
		C400,116.8,393.6,123.2,385.7,123.2z"/>
	<circle fill="#FFFFFF" cx="168.2" cy="39.3" r="5.6"/>
	<path fill="#FFFFFF" d="M164.3,49.1c-0.4,0-0.8,0.3-0.8,0.8v32.3c0,0.4,0.3,0.8,0.8,0.8h7.7c0.4,0,0.8-0.3,0.8-0.8V49.9
		c0-0.4-0.3-0.8-0.8-0.8H164.3z"/>
	<path fill="#FFFFFF" d="M131.9,49.1h-7.7c-0.4,0-0.8,0.3-0.8,0.8v44.7c0,0.4,0.3,0.8,0.8,0.8h7.7c0.4,0,0.8-0.3,0.8-0.8V78.8
		c0-0.1,0.1-0.2,0.2-0.2c1.7,2.5,6.1,5.2,10.9,5.2c9.9-0.1,15.1-8.2,15.1-17.7c0-10.3-5.2-18.3-15.6-18.5c-4.4,0-8,1.7-10.2,5.3
		c-0.2,0-0.3-0.2-0.3-0.3v-2.6C132.7,49.5,132.4,49.1,131.9,49.1z M141.2,54.6c10.9,0.2,11.3,21.6,0.1,22
		C129.9,76.3,130.3,54.8,141.2,54.6z"/>
	<path fill="#FFFFFF" d="M43.6,83c0.3,0,0.6-0.2,0.7-0.5l3.5-9.8c0.1-0.3,0.4-0.5,0.7-0.5h17.1c0.3,0,0.6,0.2,0.7,0.5l3.8,9.8
		c0.1,0.3,0.4,0.5,0.7,0.5h7.6c0.3,0,0.5-0.1,0.6-0.3c0.1-0.2,0.2-0.5,0.1-0.7L61.3,35.8c-0.1-0.3-0.4-0.5-0.7-0.5h-8.2
		c-0.3,0-0.6,0.2-0.7,0.5L35.3,82c-0.1,0.2,0,0.5,0.1,0.7c0.1,0.2,0.4,0.3,0.6,0.3H43.6z M51.1,63.5L56,49.7
		c0.1-0.3,0.4-0.5,0.7-0.5c0.3,0,0.6,0.2,0.7,0.5l5.4,13.8c0.1,0.2,0.1,0.5-0.1,0.7c-0.1,0.2-0.4,0.3-0.6,0.3H51.8
		c-0.3,0-0.5-0.1-0.6-0.3C51,64,51,63.8,51.1,63.5z"/>
	<path fill="#FFFFFF" d="M91.9,49.1h-7.7c-0.4,0-0.8,0.3-0.8,0.8v44.7c0,0.4,0.3,0.8,0.8,0.8h7.7c0.4,0,0.8-0.3,0.8-0.8V78.8
		c0-0.1,0.1-0.2,0.2-0.2c1.7,2.5,6.1,5.2,10.9,5.2c9.9-0.1,15.1-8.2,15.1-17.7c0-10.3-5.2-18.3-15.6-18.5c-4.4,0-8,1.7-10.2,5.3
		c-0.2,0-0.3-0.2-0.3-0.3v-2.6C92.7,49.5,92.3,49.1,91.9,49.1z M101.2,54.6c10.9,0.2,11.3,21.6,0.1,22
		C89.9,76.3,90.3,54.8,101.2,54.6z"/>
	<path fill="#FFFFFF" d="M187.4,49.1h-7.7c-0.4,0-0.8,0.3-0.8,0.8v44.7c0,0.4,0.3,0.8,0.8,0.8h7.7c0.4,0,0.8-0.3,0.8-0.8V78.8
		c0-0.1,0.1-0.2,0.2-0.2c1.7,2.5,6.1,5.2,10.9,5.2c9.9-0.1,15.1-8.2,15.1-17.7c0-10.3-5.2-18.3-15.6-18.5c-4.4,0-8,1.7-10.2,5.3
		c-0.2,0-0.3-0.2-0.3-0.3v-2.6C188.2,49.5,187.9,49.1,187.4,49.1z M196.7,54.6c10.9,0.2,11.3,21.6,0.1,22
		C185.4,76.3,185.8,54.8,196.7,54.6z"/>
	<path fill="#FFFFFF" d="M364,49.1h-8.2c-0.3,0-0.6,0.2-0.7,0.5l-7.3,22.3c0,0,0,0.1-0.1,0.1c0,0-0.1,0-0.1-0.1L340,49.7
		c-0.1-0.3-0.4-0.5-0.7-0.5h-8.4c-0.3,0-0.5,0.1-0.6,0.3c-0.1,0.2-0.2,0.5-0.1,0.7l11.7,30.5c0,0,0,0,0,0c2.7,7.2-5.1,6.5-8.2,6.2
		c-0.2,0-0.4,0-0.6,0.2c-0.2,0.1-0.3,0.4-0.3,0.6v6.2c0,0.4,0.3,0.7,0.7,0.8c8.8,0.9,14.4,0.2,17.2-7.5c0,0,0,0,0,0l14.1-36.9
		c0.1-0.2,0.1-0.5-0.1-0.7C364.5,49.3,364.2,49.1,364,49.1z"/>
	<path fill="#FFFFFF" d="M304,49.1h-7.7c-0.4,0-0.8,0.3-0.8,0.8v32.3c0,0.4,0.3,0.8,0.8,0.8h7.7c0.4,0,0.8-0.3,0.8-0.8V64.8
		c0,0,0,0,0,0c0-5.4,2.4-9.9,7.9-9.8c4.8,0,6.1,3.5,6,8.4c0,0,0,0,0,0v18.8c0,0.4,0.3,0.8,0.8,0.8h7.6c0.4,0,0.8-0.3,0.8-0.8V61.7
		c0-9.7-2.8-14-12.3-14.1c0,0,0,0,0,0c-4.5,0-8.2,1.8-10.8,5.7v-3.3C304.8,49.5,304.4,49.1,304,49.1z"/>
	<path fill="#FFFFFF" d="M273.3,83.8c9.9-0.1,15.7-5.7,17.3-13.3c0.3-1.3,0.4-2.5,0.5-3.8c0.4-10.9-5.8-19-17.8-19.1
		c-9.4,0.1-15.1,5.2-17,12.2c-0.7,2.6-0.9,5.3-0.7,8C256.5,77.1,262.6,83.6,273.3,83.8z M273.3,54.6c11.6,0.2,11.1,22,0,22
		C262.1,76.7,262,54.8,273.3,54.6z"/>
	<path fill="#FFFFFF" d="M227.5,35.4h-7.7c-0.4,0-0.8,0.3-0.8,0.8v46.1c0,0.4,0.3,0.8,0.8,0.8h7.7c0.4,0,0.8-0.3,0.8-0.8V64.8
		c0,0,0,0,0,0c0-5.2,2.5-9.9,7.7-9.8c5,0,6.3,3.3,6.3,8.4c0,0,0,0,0,0v18.8c0,0.4,0.3,0.8,0.8,0.8h7.6c0.4,0,0.8-0.3,0.8-0.8V61.7
		c0-9.5-2.4-14-12.2-14.1c0,0,0,0,0,0c-4.6,0-8.4,1.8-10.9,5.7V36.2C228.2,35.7,227.9,35.4,227.5,35.4z"/>
</g>
</svg>
