<?xml version="1.0" encoding="utf-8"?>
<!-- Generator: Adobe Illustrator 24.1.0, SVG Export Plug-In . SVG Version: 6.00 Build 0)  -->
<svg version="1.1" id="Layer_1" xmlns="http://www.w3.org/2000/svg" xmlns:xlink="http://www.w3.org/1999/xlink" x="0px" y="0px"
	 viewBox="0 0 340.8 76" style="enable-background:new 0 0 340.8 76;" xml:space="preserve">
<style type="text/css">
	.st0{fill-rule:evenodd;clip-rule:evenodd;fill:#0A2540;}
	.st1{fill:#0A2540;}
	.st2{fill:#15BE53;}
	.st3{fill:url(#SVGID_1_);}
	.st4{fill:#00D924;}
	.st5{fill:url(#SVGID_2_);}
</style>
<path class="st0" d="M125,38.7c0-8.7-4.3-15.6-12.6-15.6c-8.3,0-13.3,6.9-13.3,15.6c0,10.3,5.9,15.5,14.4,15.5
	c4.1,0,7.3-0.9,9.6-2.2v-6.8c-2.4,1.2-5.1,1.9-8.5,1.9c-3.4,0-6.4-1.2-6.8-5.2h17C124.9,41.3,125,39.6,125,38.7z M107.8,35.5
	c0-3.9,2.4-5.5,4.6-5.5c2.1,0,4.4,1.6,4.4,5.5H107.8z"/>
<path class="st0" d="M85.7,23.1c-3.4,0-5.6,1.6-6.8,2.7l-0.5-2.1h-7.7v39.8l8.7-1.8l0-9.7c1.3,0.9,3.1,2.2,6.2,2.2
	c6.2,0,11.9-4.9,11.9-15.7C97.5,28.5,91.8,23.1,85.7,23.1z M83.6,46.6c-2.1,0-3.3-0.7-4.1-1.6l0-12.7c0.9-1,2.2-1.7,4.1-1.7
	c3.2,0,5.4,3.5,5.4,8C89,43.2,86.8,46.6,83.6,46.6z"/>
<path class="st0" d="M58.8,21.1l8.7-1.8v-6.9l-8.7,1.8V21.1z"/>
<path class="st1" d="M67.5,23.7h-8.7v29.9h8.7V23.7z"/>
<path class="st0" d="M49.4,26.2l-0.6-2.5h-7.5v29.9H50V33.3c2.1-2.6,5.5-2.2,6.6-1.8v-7.9C55.5,23.3,51.4,22.5,49.4,26.2z"/>
<path class="st0" d="M32,16.3L23.5,18l0,27.4c0,5.1,3.9,8.8,9,8.8c2.9,0,4.9-0.5,6.1-1.1v-6.9c-1.1,0.4-6.6,2-6.6-3V30.9h6.6v-7.3
	h-6.6L32,16.3z"/>
<path class="st0" d="M8.4,32.3c0-1.3,1.1-1.8,3-1.8c2.6,0,6,0.8,8.6,2.2v-8c-2.9-1.1-5.7-1.6-8.6-1.6c-7.1,0-11.8,3.6-11.8,9.7
	c0,9.4,13.2,7.9,13.2,12c0,1.6-1.4,2.1-3.3,2.1c-2.9,0-6.6-1.2-9.5-2.7v8.1c3.2,1.4,6.5,1.9,9.5,1.9c7.2,0,12.2-3.5,12.2-9.6
	C21.7,34.4,8.4,36.2,8.4,32.3z"/>
<path class="st2" d="M250,37.1h6.3c0.9,0,1.7-0.3,2.3-0.8c0.6-0.5,0.9-1.3,0.9-2.3c0-1.1-0.3-1.9-0.8-2.4c-0.6-0.5-1.4-0.7-2.4-0.7
	H250V37.1z M246.2,27.9h10.8c2,0,3.6,0.5,4.8,1.4s1.8,2.3,1.8,4.1c0,1.1-0.3,2.1-0.8,2.9c-0.5,0.8-1.3,1.4-2.3,1.8v0.1
	c1.4,0.3,2.4,0.9,3.1,2c0.7,1,1.1,2.2,1.1,3.8c0,0.9-0.2,1.7-0.5,2.4c-0.3,0.7-0.8,1.4-1.5,2c-0.7,0.5-1.5,1-2.5,1.3
	c-1,0.3-2.3,0.5-3.7,0.5h-10.2V27.9z M250,46.8h6.9c1.2,0,2.1-0.3,2.7-0.9c0.7-0.6,1-1.5,1-2.6c0-1.1-0.3-1.9-1-2.5
	c-0.6-0.6-1.5-0.9-2.7-0.9H250V46.8z M269,27.9h3.5v3.3H269V27.9z M269,34h3.5v16H269V34z M277.9,27.9h3.5V50h-3.5V27.9z
	 M286.7,27.9h3.5V50h-3.5V27.9z M295.6,27.9h3.5v3.3h-3.5V27.9z M295.6,34h3.5v16h-3.5V34z M304.4,34h3.3v2.4l0.1,0.1
	c0.5-0.9,1.2-1.6,2.1-2.1c0.9-0.5,1.8-0.8,2.9-0.8c1.8,0,3.1,0.5,4.2,1.4c1,0.9,1.5,2.3,1.5,4.1v11h-3.5V39.9c0-1.3-0.3-2.2-0.8-2.7
	c-0.5-0.6-1.3-0.9-2.3-0.9c-0.6,0-1.1,0.1-1.6,0.3c-0.5,0.2-0.9,0.5-1.2,0.9c-0.3,0.4-0.6,0.8-0.8,1.3s-0.3,1.1-0.3,1.6V50h-3.5V34z
	 M338.4,49.2c0,2.4-0.7,4.2-2,5.4c-1.3,1.2-3.3,1.8-5.8,1.8c-0.8,0-1.6-0.1-2.4-0.2c-0.8-0.2-1.5-0.4-2.2-0.8
	c-0.7-0.4-1.2-0.9-1.7-1.5c-0.5-0.6-0.7-1.4-0.8-2.4h3.5c0.1,0.5,0.3,0.9,0.5,1.2c0.2,0.3,0.5,0.5,0.9,0.7c0.4,0.2,0.7,0.3,1.1,0.3
	c0.4,0.1,0.8,0.1,1.3,0.1c1.4,0,2.5-0.4,3.1-1.1c0.7-0.7,1-1.7,1-3v-2.4h-0.1c-0.5,0.9-1.2,1.6-2,2.1c-0.8,0.5-1.8,0.7-2.8,0.7
	c-1.3,0-2.4-0.2-3.3-0.7c-0.9-0.5-1.6-1.1-2.2-1.8c-0.6-0.8-1-1.7-1.3-2.7c-0.3-1-0.4-2.1-0.4-3.3c0-1.1,0.2-2.1,0.5-3.1
	c0.3-1,0.8-1.8,1.4-2.5c0.6-0.7,1.4-1.3,2.3-1.8c0.9-0.4,1.9-0.7,3.1-0.7c1,0,1.9,0.2,2.8,0.7c0.8,0.4,1.5,1.1,2,2h0.1V34h3.5V49.2z
	 M330.6,47.2c0.8,0,1.4-0.2,2-0.5c0.6-0.3,1-0.8,1.3-1.3c0.4-0.5,0.6-1.1,0.7-1.8c0.2-0.7,0.2-1.4,0.2-2s-0.1-1.3-0.2-2
	c-0.2-0.6-0.4-1.2-0.8-1.7c-0.3-0.5-0.8-0.9-1.3-1.2c-0.5-0.3-1.2-0.4-2-0.4c-0.8,0-1.4,0.2-2,0.5c-0.5,0.3-1,0.8-1.3,1.3
	c-0.3,0.5-0.6,1.1-0.7,1.8c-0.1,0.7-0.2,1.3-0.2,2s0.1,1.3,0.2,2c0.2,0.6,0.4,1.2,0.7,1.7c0.4,0.5,0.8,0.9,1.3,1.2
	C329.2,47.1,329.8,47.2,330.6,47.2z"/>
<linearGradient id="SVGID_1_" gradientUnits="userSpaceOnUse" x1="181.2081" y1="62.7644" x2="181.2111" y2="11.1435" gradientTransform="matrix(1 0 0 -1 0 78)">
	<stop  offset="0" style="stop-color:#FFD748"/>
	<stop  offset="1" style="stop-color:#FFC148"/>
</linearGradient>
<path class="st3" d="M204.6,8.2c0-2.5-2-4.4-4.4-4.4h-37.9c-2.5,0-4.4,2-4.4,4.4v54.1c0,1.5,0.8,2.9,2,3.7c1.3,0.8,2.9,0.9,4.2,0.3
	l18.3-8.1l19.6-8.7c1.6-0.7,2.6-2.3,2.6-4.1V24.1V8.2z"/>
<path class="st4" d="M205.5,74c13.4,0,24.3-10.9,24.3-24.3s-10.9-24.3-24.3-24.3c-13.4,0-24.3,10.9-24.3,24.3S192.1,74,205.5,74z"/>
<linearGradient id="SVGID_2_" gradientUnits="userSpaceOnUse" x1="192.91" y1="52.5844" x2="192.909" y2="19.8622" gradientTransform="matrix(1 0 0 -1 0 78)">
	<stop  offset="0" style="stop-color:#00A600"/>
	<stop  offset="1" style="stop-color:#00D924"/>
</linearGradient>
<path class="st5" d="M204.6,25.4v20.1c0,1.8-1,3.3-2.6,4.1l-19.3,8.6c-1-2.6-1.5-5.5-1.5-8.4C181.2,36.6,191.6,25.9,204.6,25.4z"/>
</svg>
