<svg width="578" height="466" viewBox="0 0 578 466" fill="none" xmlns="http://www.w3.org/2000/svg">
<ellipse cx="257.427" cy="232.868" rx="209.914" ry="161.571" transform="rotate(156.052 257.427 232.868)" fill="#F4FAFF"/>
<ellipse cx="469.682" cy="355.253" rx="46.8101" ry="30.4695" transform="rotate(165.034 469.682 355.253)" fill="#F4FAFF"/>
<ellipse cx="517.171" cy="268.796" rx="50.1297" ry="33.4891" transform="rotate(150 517.171 268.796)" fill="#F4FAFF"/>
<rect x="96.5128" y="156.371" width="347" height="253" rx="13.5" fill="white" stroke="#DDDBDA" stroke-width="3"/>
<rect x="192.013" y="210.728" width="225" height="46" rx="15" fill="#A09BFF"/>
<rect x="192.013" y="276.728" width="225" height="46" rx="15" fill="#D0CEFF"/>
<rect x="192.013" y="342.728" width="225" height="46" rx="15" fill="#E1DFFD"/>
<rect x="133.013" y="342.728" width="46" height="46" rx="15" fill="#E1DFFD"/>
<path d="M156.483 357.728V374.668" stroke="white" stroke-width="5" stroke-linecap="round"/>
<path d="M164.952 366.198L148.013 366.198" stroke="white" stroke-width="5" stroke-linecap="round"/>
<rect x="133.013" y="276.728" width="46" height="46" rx="15" fill="#D0CEFF"/>
<path d="M156.483 291.728V308.668" stroke="white" stroke-width="5" stroke-linecap="round"/>
<path d="M164.952 300.198L148.013 300.198" stroke="white" stroke-width="5" stroke-linecap="round"/>
<rect x="133.013" y="210.728" width="46" height="46" rx="15" fill="#A09BFF"/>
<path d="M156.483 225.728V242.668" stroke="white" stroke-width="5" stroke-linecap="round"/>
<path d="M164.952 234.198L148.013 234.198" stroke="white" stroke-width="5" stroke-linecap="round"/>
<g clip-path="url(#clip0_52_537)">
<path d="M110.657 141.611C113.763 138.506 117.965 136.496 122.715 136.496C128.926 136.496 134.407 139.967 137.33 145.083C139.888 143.986 142.628 143.256 145.551 143.256C156.878 143.256 166.013 152.39 166.013 163.717C166.013 175.044 156.878 184.179 145.551 184.179C144.09 184.179 142.811 183.996 141.532 183.813C138.974 188.381 134.042 191.486 128.378 191.486C126.003 191.486 123.811 190.938 121.801 190.025C119.244 196.054 113.215 200.256 106.09 200.256C98.7821 200.256 92.3878 195.688 90.0128 189.111C88.9167 189.294 87.8205 189.477 86.7244 189.477C77.9551 189.477 70.8301 182.352 70.8301 173.583C70.8301 167.736 73.9359 162.621 78.6859 159.881C77.7724 157.688 77.2244 155.131 77.2244 152.573C77.2244 142.525 85.4455 134.304 95.6763 134.304C102.071 134.486 107.369 137.227 110.657 141.611Z" fill="#1B96FF"/>
</g>
<path d="M269.062 188.755C267.903 189.86 266.081 189.86 264.922 188.755L246.454 171.15C244.494 169.282 245.817 165.978 248.524 165.978L285.459 165.978C288.167 165.978 289.489 169.282 287.529 171.15L269.062 188.755Z" fill="#DDDBDA"/>
<path d="M330.013 102.728C334.984 102.728 339.013 98.6988 339.013 93.7283C339.013 88.7577 334.984 84.7283 330.013 84.7283V102.728ZM276.513 169.728C276.513 155.178 278.946 138.072 286.804 124.903C294.254 112.417 306.955 102.728 330.013 102.728V84.7283C300.571 84.7283 282.022 97.7894 271.347 115.679C261.08 132.884 258.513 153.779 258.513 169.728H276.513Z" fill="#DDDBDA"/>
<rect x="330.513" y="58.2283" width="139" height="70" rx="13.5" fill="white" stroke="#635BFF" stroke-width="3"/>
<path fill-rule="evenodd" clip-rule="evenodd" d="M436.167 93.6633C436.167 88.4858 433.676 84.4004 428.916 84.4004C424.136 84.4004 421.243 88.4858 421.243 93.6229C421.243 99.7105 424.658 102.785 429.559 102.785C431.949 102.785 433.757 102.239 435.122 101.47V97.4251C433.757 98.1127 432.19 98.5375 430.202 98.5375C428.253 98.5375 426.526 97.8498 426.305 95.4633H436.127C436.127 95.2004 436.167 94.1487 436.167 93.6633ZM426.245 91.742C426.245 89.4566 427.631 88.506 428.896 88.506C430.121 88.506 431.427 89.4566 431.427 91.742H426.245Z" fill="#635BFF"/>
<path fill-rule="evenodd" clip-rule="evenodd" d="M413.49 84.4004C411.522 84.4004 410.257 85.3307 409.554 85.9779L409.293 84.724H404.874V108.306L409.895 107.234L409.915 101.511C410.638 102.036 411.703 102.785 413.47 102.785C417.066 102.785 420.34 99.8723 420.34 93.4611C420.319 87.5959 417.005 84.4004 413.49 84.4004ZM412.285 98.3352C411.1 98.3352 410.397 97.9105 409.915 97.3847L409.895 89.8813C410.417 89.2948 411.14 88.8903 412.285 88.8903C414.113 88.8903 415.378 90.9532 415.378 93.6026C415.378 96.3127 414.133 98.3352 412.285 98.3352Z" fill="#635BFF"/>
<path fill-rule="evenodd" clip-rule="evenodd" d="M397.964 83.207L403.006 82.1149V78.0093L397.964 79.0812V83.207Z" fill="#635BFF"/>
<path d="M403.006 84.7441H397.964V102.441H403.006V84.7441Z" fill="#635BFF"/>
<path fill-rule="evenodd" clip-rule="evenodd" d="M392.561 86.2408L392.24 84.7442H387.902V102.441H392.923V90.4476C394.108 88.8903 396.116 89.1734 396.739 89.3959V84.7442C396.096 84.5015 393.746 84.0566 392.561 86.2408Z" fill="#635BFF"/>
<path fill-rule="evenodd" clip-rule="evenodd" d="M382.519 80.3552L377.618 81.4069L377.598 97.6069C377.598 100.6 379.827 102.805 382.8 102.805C384.447 102.805 385.652 102.501 386.315 102.137V98.0316C385.672 98.2946 382.499 99.2249 382.499 96.2316V89.0519H386.315V84.744H382.499L382.519 80.3552Z" fill="#635BFF"/>
<path fill-rule="evenodd" clip-rule="evenodd" d="M368.941 89.8813C368.941 89.0925 369.584 88.7892 370.648 88.7892C372.175 88.7892 374.103 89.2543 375.629 90.0835V85.3307C373.962 84.6633 372.315 84.4004 370.648 84.4004C366.571 84.4004 363.859 86.5442 363.859 90.124C363.859 95.706 371.492 94.8161 371.492 97.2229C371.492 98.1532 370.688 98.4566 369.563 98.4566C367.896 98.4566 365.767 97.7689 364.08 96.8386V101.652C365.948 102.461 367.836 102.805 369.563 102.805C373.741 102.805 376.613 100.722 376.613 97.1015C376.593 91.0745 368.941 92.1465 368.941 89.8813Z" fill="#635BFF"/>
<defs>
<clipPath id="clip0_52_537">
<rect width="95" height="95" fill="white" transform="translate(71.0128 119.871)"/>
</clipPath>
</defs>
</svg>
