<svg width="272" height="258" viewBox="0 0 272 258" fill="none" xmlns="http://www.w3.org/2000/svg">
<ellipse cx="129.001" cy="129" rx="107.776" ry="73.5262" transform="rotate(45 129.001 129)" fill="#F9F9FA"/>
<path d="M48.4633 137.165C47.1916 138.138 45.38 137.941 44.3476 136.717L27.8947 117.216C26.1488 115.146 27.8209 112.006 30.5124 112.299L67.2303 116.298C69.9218 116.591 70.8787 120.018 68.7283 121.663L48.4633 137.165Z" fill="#DDDBDA"/>
<g clip-path="url(#clip0_188_2799)">
<path d="M203.243 28.0037C207.1 24.146 212.32 21.6498 218.22 21.6498C225.935 21.6498 232.743 25.9614 236.373 32.3152C239.55 30.9537 242.954 30.046 246.585 30.046C260.654 30.046 272 41.3921 272 55.4614C272 69.5306 260.654 80.8768 246.585 80.8768C244.77 80.8768 243.181 80.6498 241.593 80.4229C238.416 86.096 232.289 89.9537 225.254 89.9537C222.304 89.9537 219.581 89.2729 217.085 88.1383C213.908 95.6268 206.42 100.846 197.57 100.846C188.493 100.846 180.55 95.1729 177.6 87.0037C176.239 87.2306 174.877 87.4575 173.516 87.4575C162.623 87.4575 153.773 78.6075 153.773 67.7152C153.773 60.4537 157.631 54.0998 163.531 50.696C162.397 47.9729 161.716 44.796 161.716 41.6191C161.716 29.1383 171.927 18.9268 184.635 18.9268C192.577 19.1537 199.158 22.5575 203.243 28.0037Z" fill="#1B96FF"/>
</g>
<path d="M129 58C134.523 58 139 53.5228 139 48C139 42.4772 134.523 38 129 38V58ZM58 129C58 89.7878 89.7878 58 129 58V38C78.7421 38 38 78.7421 38 129H58Z" fill="#DDDBDA"/>
<path d="M125 200C119.477 200 115 204.477 115 210C115 215.523 119.477 220 125 220L125 200ZM196 129C196 168.212 164.212 200 125 200L125 220C175.258 220 216 179.258 216 129L196 129Z" fill="#DDDBDA"/>
<path d="M204.914 116.838C206.179 115.856 207.992 116.041 209.033 117.258L225.619 136.646C227.379 138.703 225.728 141.855 223.035 141.581L186.29 137.833C183.597 137.558 182.616 134.138 184.756 132.478L204.914 116.838Z" fill="#DDDBDA"/>
<path d="M72.35 155.843C72.35 153.154 70.1658 150.975 67.4717 150.975H25.8783C23.1841 150.975 21 153.154 21 155.843V215.232C21 216.88 21.8355 218.416 23.2203 219.314C24.6051 220.211 26.3511 220.349 27.8601 219.68L47.983 210.747L69.4535 201.206C71.215 200.424 72.35 198.681 72.35 196.758V173.27V155.843Z" fill="url(#paint0_linear_188_2799)"/>
<path d="M73.3373 228C88.0625 228 99.9998 216.062 99.9998 201.337C99.9998 186.612 88.0625 174.675 73.3373 174.675C58.6121 174.675 46.6748 186.612 46.6748 201.337C46.6748 216.062 58.6121 228 73.3373 228Z" fill="#00D924"/>
<path d="M72.3496 174.692L72.3498 196.758C72.3498 198.681 71.2148 200.424 69.4533 201.206L48.3261 210.595C47.2582 207.711 46.6748 204.592 46.6748 201.337C46.6748 186.942 58.0818 175.212 72.3496 174.692Z" fill="url(#paint1_linear_188_2799)"/>
<defs>
<linearGradient id="paint0_linear_188_2799" x1="46.675" y1="163.522" x2="46.6778" y2="220.162" gradientUnits="userSpaceOnUse">
<stop stop-color="#FFD748"/>
<stop offset="1" stop-color="#FFC148"/>
</linearGradient>
<linearGradient id="paint1_linear_188_2799" x1="59.5131" y1="174.692" x2="59.5115" y2="210.595" gradientUnits="userSpaceOnUse">
<stop stop-color="#00A600"/>
<stop offset="1" stop-color="#00D924"/>
</linearGradient>
<clipPath id="clip0_188_2799">
<rect width="118" height="118" fill="white" transform="translate(154 1)"/>
</clipPath>
</defs>
</svg>
