<svg width="263" height="263" viewBox="0 0 263 263" fill="none" xmlns="http://www.w3.org/2000/svg">
<ellipse cx="131.434" cy="131.433" rx="106.408" ry="79.4665" transform="rotate(45 131.434 131.433)" fill="#F9F9FA"/>
<path d="M74.5703 96.2041C72.3612 96.2041 70.5703 97.995 70.5703 100.204C70.5703 102.413 72.3612 104.204 74.5703 104.204V96.2041ZM74.5703 104.204H176.57V96.2041H74.5703V104.204Z" fill="#DDDBDA"/>
<path d="M74.5703 186.204C72.3612 186.204 70.5703 187.995 70.5703 190.204C70.5703 192.413 72.3612 194.204 74.5703 194.204V186.204ZM74.5703 194.204H175.57V186.204H74.5703V194.204Z" fill="#DDDBDA"/>
<path d="M74.5703 156.204C72.3612 156.204 70.5703 157.995 70.5703 160.204C70.5703 162.413 72.3612 164.204 74.5703 164.204V156.204ZM74.5703 164.204C103.483 164.204 122.324 156.711 137.378 149.292C145.005 145.533 151.13 142.083 157.402 139.416C163.509 136.82 169.269 135.204 175.57 135.204V127.204C167.819 127.204 160.954 129.213 154.272 132.054C147.755 134.825 140.925 138.625 133.841 142.116C119.474 149.197 101.866 156.204 74.5703 156.204V164.204Z" fill="#DDDBDA"/>
<path d="M74.5703 135.204C72.3612 135.204 70.5703 133.413 70.5703 131.204C70.5703 128.995 72.3612 127.204 74.5703 127.204V135.204ZM74.5703 127.204C103.483 127.204 122.324 134.697 137.378 142.116C145.005 145.875 151.13 149.325 157.402 151.992C163.509 154.588 169.269 156.204 175.57 156.204V164.204C167.819 164.204 160.954 162.195 154.272 159.354C147.755 156.583 140.925 152.783 133.841 149.292C119.474 142.211 101.866 135.204 74.5703 135.204V127.204Z" fill="#DDDBDA"/>
<g clip-path="url(#clip0_188_2449)">
<path d="M204.271 37.1045C205.971 35.4045 208.271 34.3045 210.871 34.3045C214.271 34.3045 217.271 36.2045 218.871 39.0045C220.271 38.4045 221.771 38.0045 223.371 38.0045C229.571 38.0045 234.571 43.0045 234.571 49.2045C234.571 55.4045 229.571 60.4045 223.371 60.4045C222.571 60.4045 221.871 60.3045 221.171 60.2045C219.771 62.7045 217.071 64.4045 213.971 64.4045C212.671 64.4045 211.471 64.1045 210.371 63.6045C208.971 66.9045 205.671 69.2045 201.771 69.2045C197.771 69.2045 194.271 66.7045 192.971 63.1045C192.371 63.2045 191.771 63.3045 191.171 63.3045C186.371 63.3045 182.471 59.4045 182.471 54.6045C182.471 51.4045 184.171 48.6045 186.771 47.1045C186.271 45.9045 185.971 44.5045 185.971 43.1045C185.971 37.6045 190.471 33.1045 196.071 33.1045C199.571 33.2045 202.471 34.7045 204.271 37.1045Z" fill="#1B96FF"/>
</g>
<circle cx="51.0703" cy="100.704" r="7.5" fill="#C4C4C4"/>
<circle cx="208.07" cy="100.704" r="7.5" fill="#C4C4C4"/>
<circle cx="51.0703" cy="130.704" r="7.5" fill="#C4C4C4"/>
<circle cx="208.07" cy="130.704" r="7.5" fill="#C4C4C4"/>
<circle cx="51.0703" cy="160.704" r="7.5" fill="#C4C4C4"/>
<circle cx="208.07" cy="160.704" r="7.5" fill="#C4C4C4"/>
<circle cx="51.0703" cy="190.704" r="7.5" fill="#C4C4C4"/>
<circle cx="208.07" cy="190.704" r="7.5" fill="#C4C4C4"/>
<path d="M188.002 98.2981C188.913 99.4055 188.913 101.003 188.002 102.11L180.637 111.062C178.848 113.236 175.32 111.972 175.32 109.156L175.32 91.2519C175.32 88.4366 178.848 87.1718 180.637 89.3459L188.002 98.2981Z" fill="#DDDBDA"/>
<path d="M188.002 128.298C188.913 129.405 188.913 131.003 188.002 132.11L180.637 141.062C178.848 143.236 175.32 141.972 175.32 139.156L175.32 121.252C175.32 118.437 178.848 117.172 180.637 119.346L188.002 128.298Z" fill="#DDDBDA"/>
<path d="M188.002 158.298C188.913 159.405 188.913 161.003 188.002 162.11L180.637 171.062C178.848 173.236 175.32 171.972 175.32 169.156L175.32 151.252C175.32 148.437 178.848 147.172 180.637 149.346L188.002 158.298Z" fill="#DDDBDA"/>
<path d="M188.002 189.298C188.913 190.405 188.913 192.003 188.002 193.11L180.637 202.062C178.848 204.236 175.32 202.972 175.32 200.156L175.32 182.252C175.32 179.437 178.848 178.172 180.637 180.346L188.002 189.298Z" fill="#DDDBDA"/>
<path d="M60.6 31.8109C60.6 30.3135 59.3835 29.0996 57.883 29.0996H34.717C33.2164 29.0996 32 30.3135 32 31.8109V64.8883C32 65.8062 32.4654 66.6618 33.2366 67.1618C34.0079 67.6619 34.9803 67.7387 35.8208 67.3658L47.0285 62.3906L58.9867 57.0766C59.9678 56.6413 60.6 55.6704 60.6 54.5992V41.5172V31.8109Z" fill="url(#paint0_linear_188_2449)"/>
<path d="M61.1498 71.9998C69.3512 71.9998 75.9998 65.3512 75.9998 57.1498C75.9998 48.9484 69.3512 42.2998 61.1498 42.2998C52.9484 42.2998 46.2998 48.9484 46.2998 57.1498C46.2998 65.3512 52.9484 71.9998 61.1498 71.9998Z" fill="#00D924"/>
<path d="M60.5997 42.3096L60.5998 54.5991C60.5998 55.6704 59.9676 56.6413 58.9865 57.0765L47.2195 62.306C46.6247 60.6998 46.2998 58.9627 46.2998 57.1496C46.2998 49.1323 52.6531 42.599 60.5997 42.3096Z" fill="url(#paint1_linear_188_2449)"/>
<defs>
<linearGradient id="paint0_linear_188_2449" x1="46.3" y1="36.0881" x2="46.3015" y2="67.6343" gradientUnits="userSpaceOnUse">
<stop stop-color="#FFD748"/>
<stop offset="1" stop-color="#FFC148"/>
</linearGradient>
<linearGradient id="paint1_linear_188_2449" x1="53.4502" y1="42.3096" x2="53.4494" y2="62.306" gradientUnits="userSpaceOnUse">
<stop stop-color="#00A600"/>
<stop offset="1" stop-color="#00D924"/>
</linearGradient>
<clipPath id="clip0_188_2449">
<rect width="52" height="52" fill="white" transform="translate(182.57 25.2041)"/>
</clipPath>
</defs>
</svg>
