<svg width="287" height="284" viewBox="0 0 287 284" fill="none" xmlns="http://www.w3.org/2000/svg">
<ellipse cx="142.001" cy="141.898" rx="107.776" ry="92.8982" transform="rotate(45 142.001 141.898)" fill="#F9F9FA"/>
<path d="M113 120.898L143 150.898" stroke="#DDDBDA" stroke-width="10" stroke-linecap="round"/>
<path d="M140 120.898L170 150.898" stroke="#DDDBDA" stroke-width="10" stroke-linecap="round"/>
<g clip-path="url(#clip0_188_1938)">
<path d="M218.243 38.9021C222.1 35.0444 227.32 32.5483 233.22 32.5483C240.935 32.5483 247.743 36.8598 251.373 43.2137C254.55 41.8521 257.954 40.9444 261.585 40.9444C275.654 40.9444 287 52.2906 287 66.3598C287 80.429 275.654 91.7752 261.585 91.7752C259.77 91.7752 258.181 91.5483 256.593 91.3213C253.416 96.9944 247.289 100.852 240.254 100.852C237.304 100.852 234.581 100.171 232.085 99.0367C228.908 106.525 221.42 111.744 212.57 111.744C203.493 111.744 195.55 106.071 192.6 97.9021C191.239 98.129 189.877 98.356 188.516 98.356C177.623 98.356 168.773 89.506 168.773 78.6137C168.773 71.3521 172.631 64.9983 178.531 61.5944C177.397 58.8713 176.716 55.6944 176.716 52.5175C176.716 40.0367 186.927 29.8252 199.635 29.8252C207.577 30.0521 214.158 33.456 218.243 38.9021Z" fill="#1B96FF"/>
</g>
<path d="M104 159.898L126 138.898" stroke="#DDDBDA" stroke-width="15" stroke-linecap="round"/>
<path d="M158 133.898L182 110.898" stroke="#DDDBDA" stroke-width="15" stroke-linecap="round"/>
<path d="M83.35 160.843C83.35 158.154 81.1658 155.975 78.4717 155.975H36.8783C34.1841 155.975 32 158.154 32 160.843V220.232C32 221.88 32.8355 223.416 34.2203 224.314C35.6051 225.211 37.3511 225.349 38.8601 224.68L58.983 215.747L80.4535 206.206C82.215 205.424 83.35 203.681 83.35 201.758V178.27V160.843Z" fill="url(#paint0_linear_188_1938)"/>
<path d="M84.3373 233C99.0625 233 111 221.062 111 206.337C111 191.612 99.0625 179.675 84.3373 179.675C69.6121 179.675 57.6748 191.612 57.6748 206.337C57.6748 221.062 69.6121 233 84.3373 233Z" fill="#00D924"/>
<path d="M83.3496 179.692L83.3498 201.758C83.3498 203.681 82.2148 205.424 80.4533 206.206L59.3261 215.595C58.2582 212.711 57.6748 209.592 57.6748 206.337C57.6748 191.942 69.0818 180.212 83.3496 179.692Z" fill="url(#paint1_linear_188_1938)"/>
<defs>
<linearGradient id="paint0_linear_188_1938" x1="57.675" y1="168.522" x2="57.6778" y2="225.162" gradientUnits="userSpaceOnUse">
<stop stop-color="#FFD748"/>
<stop offset="1" stop-color="#FFC148"/>
</linearGradient>
<linearGradient id="paint1_linear_188_1938" x1="70.5131" y1="179.692" x2="70.5115" y2="215.595" gradientUnits="userSpaceOnUse">
<stop stop-color="#00A600"/>
<stop offset="1" stop-color="#00D924"/>
</linearGradient>
<clipPath id="clip0_188_1938">
<rect width="118" height="118" fill="white" transform="translate(169 11.8984)"/>
</clipPath>
</defs>
</svg>
